# xmcd
#
# Track frame offsets: 
#        150
#        12517
#        31902
#        50584
#        66627
#        85179
#        98391
#        114111
#        125782
#        144989
#        168218
#
# Disc length: 2413 seconds
#
# Revision: 0
# Processed by: cddbd v1.5.2PL0 Copyright (c) Steve Scherf et al.
# Submitted via: ExactAudioCopy v0.99pb5
#
DISCID=8b096b0b
DTITLE=Phat Baby Dave and the Painkillers - Prescriptions For Life
DYEAR=2000
DGENRE=Blues
TTITLE0=Vieux Carre
TTITLE1=Here Come Da Cops
TTITLE2=Lets Make Love
TTITLE3=Baby Phat
TTITLE4=Gve It Up
TTITLE5=Clean The Clock
TTITLE6=Just One Step
TTITLE7=Lollipop
TTITLE8=Trippin at the Verdi Marte
TTITLE9=Love Your Funky...(What)
TTITLE10=Mopping Up
EXTD=
EXTT0=
EXTT1=
EXTT2=
EXTT3=
EXTT4=
EXTT5=
EXTT6=
EXTT7=
EXTT8=
EXTT9=
EXTT10=
PLAYORDER=
